<?xml version="1.0" standalone="no"?>
<!DOCTYPE svg PUBLIC "-//W3C//DTD SVG 20010904//EN"
 "http://www.w3.org/TR/2001/REC-SVG-20010904/DTD/svg10.dtd">
<svg version="1.0" xmlns="http://www.w3.org/2000/svg"
 width="3098.000000pt" height="3098.000000pt" viewBox="0 0 3098.000000 3098.000000"
 preserveAspectRatio="xMidYMid meet">

<g transform="translate(0.000000,3098.000000) scale(0.100000,-0.100000)"
fill="#000000" stroke="none">
<path d="M15628 26968 c-30 -40 -57 -78 -61 -85 -6 -10 20 -12 112 -10 66 1
122 5 126 9 7 7 -103 158 -115 158 -4 0 -32 -33 -62 -72z"/>
<path d="M15604 23247 c-512 -709 -966 -1604 -1172 -2312 -77 -263 -136 -522
-157 -684 l-7 -55 -32 53 c-79 135 -294 452 -409 604 -70 93 -127 171 -127
174 0 3 9 -5 20 -18 25 -30 24 -43 6 231 -29 415 -36 659 -37 1180 -1 323 -4
512 -10 490 -5 -19 -22 -100 -38 -180 -26 -130 -39 -200 -71 -405 -60 -379
-75 -985 -35 -1372 29 -275 81 -584 151 -888 110 -482 319 -1091 564 -1645
136 -307 503 -1035 541 -1075 5 -5 9 50 9 143 l0 152 260 0 260 0 1 -587 c3
-1392 -2 -2085 -16 -2178 -19 -122 -39 -185 -88 -279 -95 -183 -258 -300 -489
-353 -107 -24 -368 -24 -470 0 -263 62 -435 207 -519 439 -62 170 -61 148 -64
1333 -3 1156 -4 1288 -14 1239 l-6 -31 -250 113 c-137 63 -263 121 -278 129
-25 13 -24 9 16 -38 125 -147 164 -274 174 -562 14 -417 -62 -623 -280 -766
l-58 -37 69 -36 c164 -87 272 -250 311 -470 14 -76 14 -591 1 -674 -16 -95
-55 -210 -97 -282 -47 -79 -140 -174 -216 -219 -70 -41 -198 -85 -292 -100
-40 -6 -284 -12 -576 -15 l-506 -4 -7 337 c-4 185 -6 945 -6 1689 l2 1354 526
-4 527 -3 -125 44 c-331 115 -866 277 -879 265 -5 -4 14 -31 90 -129 34 -44
56 -75 49 -68 -13 12 -37 7 -58 -14 -7 -7 -28 -13 -45 -14 -27 0 -29 -2 -12
-9 13 -6 15 -9 5 -9 -8 -1 -21 -10 -28 -21 -8 -13 -23 -20 -41 -20 -21 0 -36
-8 -51 -30 -12 -17 -26 -27 -31 -24 -6 3 -13 -3 -16 -15 -3 -12 -8 -21 -12
-21 -8 0 -33 -47 -60 -112 -18 -43 -18 -47 -3 -52 9 -3 5 -4 -10 -2 -17 2 -25
-1 -22 -9 3 -8 -13 -15 -48 -19 -29 -4 -84 -13 -123 -21 -55 -10 -62 -13 -32
-14 20 -1 37 -5 37 -11 0 -5 8 -10 18 -10 14 0 17 -7 14 -40 -3 -32 -1 -40 13
-40 9 0 13 -4 10 -10 -3 -5 3 -10 14 -10 25 0 27 -15 6 -36 -20 -20 -19 -44 1
-44 12 0 15 -6 10 -22 -15 -56 -18 -98 -7 -98 7 0 11 -22 11 -60 0 -33 4 -60
8 -60 5 0 9 -15 9 -32 1 -244 8 -416 15 -412 5 3 6 -68 3 -168 -4 -95 -8 -272
-9 -393 -6 -485 -8 -535 -17 -535 -5 0 -9 -31 -9 -69 0 -39 -4 -72 -9 -76 -6
-3 -7 -36 -4 -75 5 -61 4 -70 -11 -70 -9 0 -16 -4 -16 -10 0 -5 4 -10 9 -10 5
0 11 -11 13 -25 4 -19 1 -25 -13 -25 -15 0 -19 -8 -19 -35 0 -19 -4 -35 -10
-35 -5 0 -10 -13 -10 -30 0 -20 -5 -30 -15 -30 -9 0 -15 -9 -15 -24 0 -16 -7
-27 -20 -31 -12 -4 -20 -15 -20 -29 0 -20 -7 -25 -41 -30 l-41 -7 4 -49 c3
-46 1 -51 -22 -58 -14 -5 -43 -7 -65 -4 -22 2 -38 2 -35 -1 6 -7 281 -63 358
-73 28 -3 52 -9 52 -13 0 -4 -33 -26 -72 -51 -264 -162 -578 -387 -794 -567
-164 -138 -494 -468 -647 -647 -110 -128 -337 -420 -362 -466 -9 -16 54 40
155 138 147 142 222 214 359 342 79 74 176 167 215 206 39 39 103 97 141 130
128 107 162 143 145 154 -11 7 -4 10 25 10 55 0 331 36 500 65 144 25 540 111
556 121 18 11 8 -8 -40 -74 -428 -591 -784 -1416 -1017 -2357 -68 -275 -170
-796 -158 -808 13 -13 539 90 817 159 909 227 1714 569 2287 973 69 49 126 87
128 86 2 -2 -17 -94 -42 -206 -69 -311 -136 -735 -136 -862 0 -26 -4 -46 -9
-45 -10 3 -440 -420 -478 -469 -12 -16 -50 -58 -85 -94 -54 -56 -133 -142
-251 -273 -16 -17 -47 -51 -70 -76 l-42 -45 40 30 c280 204 609 492 784 685
l91 100 2 62 c1 35 5 -119 9 -342 8 -505 33 -756 120 -1195 207 -1046 707
-2247 1414 -3400 222 -362 621 -945 647 -945 16 0 303 408 478 680 1050 1631
1658 3300 1699 4664 l6 219 109 -129 c147 -173 467 -491 651 -649 463 -395
1017 -753 1655 -1069 l195 -97 -51 48 c-110 104 -155 143 -164 143 -6 0 -10 5
-10 11 0 11 -25 39 -34 39 -9 0 -125 110 -276 261 -141 142 -490 501 -490 505
0 3 -200 213 -277 291 -40 40 -73 77 -73 83 0 5 -4 10 -9 10 -11 0 -59 50
-236 246 -44 49 -100 110 -125 136 -25 25 -65 70 -90 99 -53 62 -67 76 -78 81
-4 1 -23 23 -42 48 -19 25 -52 62 -72 82 -21 21 -38 42 -38 47 0 4 -10 19 -23
33 -13 14 -47 58 -77 99 -29 41 -65 88 -79 105 -33 38 -67 81 -131 164 -28 36
-60 76 -70 88 -11 13 -20 27 -20 32 0 5 -3 10 -7 12 -13 5 -63 76 -63 87 0 6
-5 11 -10 11 -6 0 -38 37 -71 83 -34 45 -62 83 -64 85 -1 1 2 -20 7 -48 5 -28
7 -57 5 -63 -2 -6 -9 25 -17 68 -7 44 -22 127 -34 185 l-22 105 122 -92 c715
-537 1707 -959 2864 -1218 249 -56 667 -131 677 -122 7 7 -52 351 -93 547
-259 1216 -684 2236 -1252 2997 -50 67 -86 120 -79 118 57 -20 660 -113 755
-116 36 -1 36 -2 7 -8 -30 -6 -30 -6 -9 -21 18 -13 62 -51 166 -142 54 -47 80
-68 85 -68 3 0 15 -10 27 -22 12 -13 37 -35 56 -49 19 -15 50 -41 68 -57 19
-17 48 -41 65 -54 52 -39 96 -79 197 -178 53 -52 200 -194 325 -315 126 -121
305 -295 398 -387 93 -93 171 -168 172 -168 3 0 224 -210 342 -325 135 -132
148 -143 140 -123 -25 68 -312 516 -470 733 -292 402 -682 823 -1013 1093 -46
37 -83 70 -83 75 -1 4 68 7 152 7 267 0 633 39 987 106 1145 215 2437 762
3690 1562 341 218 734 496 727 515 -9 28 -555 404 -877 604 -354 220 -670 396
-1080 601 -1063 532 -2035 839 -3000 948 -226 25 -815 31 -1050 10 -319 -29
-686 -89 -985 -161 -55 -14 -122 -30 -150 -36 -108 -24 -373 -104 -650 -197
l-289 -97 132 -3 c102 -2 134 -6 138 -17 3 -7 131 -764 283 -1682 l278 -1668
-275 -3 c-151 -1 -277 -1 -279 2 -2 2 -24 133 -49 292 -24 159 -46 295 -49
302 -3 9 -80 12 -339 12 l-334 0 -11 -62 c-5 -35 -24 -157 -41 -273 -17 -115
-35 -226 -39 -245 l-7 -35 -252 -3 c-198 -2 -252 0 -252 10 0 7 117 713 260
1567 143 855 258 1556 256 1558 -4 5 -482 -223 -614 -293 -57 -30 -105 -54
-107 -54 -2 0 -6 8 -8 18 -3 9 -3 -3 0 -28 3 -25 8 -481 10 -1015 5 -1065 2
-1129 -48 -1280 -41 -123 -80 -187 -163 -271 -57 -57 -90 -80 -166 -117 -173
-82 -155 -80 -766 -85 l-541 -3 -8 1676 c-5 1137 -4 1680 3 1687 11 11 1057 6
1102 -6 16 -4 14 -2 -5 5 -16 7 -31 13 -33 14 -1 1 60 128 135 281 223 451
386 831 537 1253 77 213 190 576 220 706 151 649 202 1002 212 1465 8 338 -15
714 -61 1000 -12 77 -13 37 -14 -455 -2 -525 -5 -673 -17 -725 l-6 -25 33 30
c25 23 22 17 -12 -25 -233 -280 -492 -642 -644 -899 l-31 -52 -28 156 c-127
716 -444 1502 -934 2320 -138 231 -444 684 -462 684 -3 0 -41 -50 -86 -112z
m-1835 -9417 c29 -12 29 -12 26 -93 -3 -79 -13 -201 -21 -242 -2 -11 -7 -33
-9 -49 -8 -39 -20 -60 -71 -123 -24 -30 -44 -63 -44 -74 0 -22 -16 -56 -34
-75 -6 -6 -22 -27 -36 -47 -14 -20 -28 -37 -32 -37 -5 0 -8 -12 -8 -26 0 -14
-13 -43 -30 -64 -16 -21 -30 -41 -30 -45 0 -4 -11 -18 -25 -31 -13 -12 -29
-42 -34 -66 -6 -23 -17 -48 -25 -54 -9 -6 -16 -14 -16 -18 0 -4 -6 -13 -12
-20 -33 -34 -58 -67 -58 -76 0 -6 -4 -10 -8 -10 -4 0 -25 -33 -46 -73 -20 -40
-48 -86 -61 -102 -95 -118 -129 -163 -141 -185 -15 -29 -49 -62 -81 -79 -13
-6 -23 -18 -23 -26 0 -8 -18 -28 -41 -44 -22 -17 -59 -50 -81 -75 -22 -26 -45
-46 -51 -46 -19 -1 -87 -56 -113 -92 -26 -35 -137 -117 -194 -144 -19 -9 -46
-26 -60 -38 -14 -12 -45 -31 -70 -41 -25 -10 -52 -26 -61 -36 -9 -10 -47 -30
-85 -45 -38 -14 -77 -35 -86 -46 -17 -19 -109 -58 -137 -58 -9 0 -24 -11 -36
-24 -25 -29 -127 -71 -180 -75 -22 -1 -58 5 -79 14 -37 16 -41 16 -53 0 -11
-17 -16 -16 -68 5 -48 19 -60 21 -79 10 -20 -10 -33 -9 -82 10 -50 18 -60 19
-69 7 -9 -13 -13 -13 -29 -1 -18 12 -18 14 -2 20 15 6 15 8 -4 21 -11 8 -20
24 -20 36 0 12 -7 31 -15 41 -19 25 -19 36 0 36 16 0 21 35 6 45 -19 11 -42
68 -31 75 15 9 -3 100 -19 100 -10 0 -39 68 -47 108 -5 24 -3 33 10 38 20 8
42 57 49 110 3 21 14 45 24 54 19 16 37 62 47 122 4 21 16 44 26 51 11 8 23
28 26 45 3 16 19 43 35 58 16 15 29 37 29 49 0 12 11 35 25 51 14 16 25 39 25
52 0 22 43 72 61 72 5 0 20 22 33 48 14 27 37 59 52 73 54 49 84 84 84 99 0
17 36 53 62 63 9 3 25 19 35 34 17 27 40 51 81 84 11 10 24 23 28 30 12 18 80
71 123 95 71 40 64 36 185 124 33 25 63 48 64 52 2 5 8 8 13 8 5 0 20 10 34
22 26 23 78 55 133 83 17 10 32 21 32 26 0 5 6 9 14 9 8 0 21 6 28 13 45 42
100 77 120 77 13 0 34 9 48 20 14 11 34 20 46 20 12 0 39 13 61 29 22 16 50
32 64 36 46 14 92 39 122 67 43 38 127 78 168 78 31 0 198 29 274 47 17 4 73
6 125 5 52 -1 115 1 140 6 l45 8 3 -47 c3 -41 7 -49 31 -59z m-3236 -47 c-13
-2 -35 -2 -50 0 -16 2 -5 4 22 4 28 0 40 -2 28 -4z m10375 0 c-10 -2 -26 -2
-35 0 -10 3 -2 5 17 5 19 0 27 -2 18 -5z m-3081 -2535 c-3 -8 -6 -5 -6 6 -1
11 2 17 5 13 3 -3 4 -12 1 -19z m10 -60 c-3 -7 -5 -2 -5 12 0 14 2 19 5 13 2
-7 2 -19 0 -25z"/>
<path d="M18643 17643 c9 -2 23 -2 30 0 6 3 -1 5 -18 5 -16 0 -22 -2 -12 -5z"/>
<path d="M11198 17333 c7 -3 16 -2 19 1 4 3 -2 6 -13 5 -11 0 -14 -3 -6 -6z"/>
<path d="M17340 17175 c0 -5 5 -17 10 -25 5 -8 10 -10 10 -5 0 6 -5 17 -10 25
-5 8 -10 11 -10 5z"/>
<path d="M14782 16967 c-1 -129 -5 -196 -12 -192 -6 4 -10 -10 -10 -34 0 -23
-5 -41 -11 -41 -7 0 -10 -15 -7 -39 3 -33 1 -38 -12 -31 -8 5 -123 71 -255
149 l-240 140 -3 -957 c-3 -990 -1 -1046 38 -1122 24 -47 78 -94 127 -111 49
-17 175 -17 231 0 61 17 126 84 149 153 16 49 18 110 19 798 0 410 -2 912 -6
1115 -5 266 -7 314 -8 172z"/>
<path d="M12224 16709 l1 -441 166 4 c162 3 167 4 225 33 47 25 65 41 91 84
48 80 55 135 50 364 -5 227 -11 256 -70 323 -55 63 -101 74 -302 74 l-162 0 1
-441z"/>
<path d="M16250 15949 l0 -1200 203 3 c185 3 205 5 243 25 58 31 101 84 121
151 17 53 18 125 18 1012 0 907 -1 958 -19 1024 -15 53 -29 79 -60 111 -61 64
-110 75 -328 75 l-178 0 0 -1201z"/>
<path d="M17361 17104 c0 -11 3 -14 6 -6 3 7 2 16 -1 19 -3 4 -6 -2 -5 -13z"/>
<path d="M18515 16973 c-18 -131 -246 -1591 -250 -1610 l-5 -23 266 0 266 0
-6 28 c-3 15 -62 392 -132 837 -69 446 -127 811 -129 813 -1 2 -6 -19 -10 -45z"/>
<path d="M12224 15264 l-2 -516 212 4 c182 3 216 6 246 22 123 65 145 144 137
504 -6 287 -21 356 -94 423 -65 61 -145 79 -358 79 l-140 0 -1 -516z"/>
<path d="M10818 14693 c7 -3 16 -2 19 1 4 3 -2 6 -13 5 -11 0 -14 -3 -6 -6z"/>
<path d="M10978 14653 c7 -3 16 -2 19 1 4 3 -2 6 -13 5 -11 0 -14 -3 -6 -6z"/>
<path d="M11018 14643 c7 -3 16 -2 19 1 4 3 -2 6 -13 5 -11 0 -14 -3 -6 -6z"/>
<path d="M7916 8509 c-8 -22 -56 -323 -56 -347 0 -28 10 -28 165 -2 161 27
177 30 173 40 -2 5 -38 45 -80 89 -43 45 -78 88 -78 96 0 8 -4 15 -10 15 -5 0
-10 9 -10 20 0 11 -4 20 -10 20 -5 0 -27 19 -49 42 -28 29 -42 37 -45 27z"/>
<path d="M24151 8025 c-1 -6 -11 -21 -24 -35 -12 -14 -35 -42 -51 -62 -15 -21
-60 -61 -100 -90 -39 -29 -87 -65 -106 -80 -19 -16 -40 -33 -47 -38 -7 -6 -16
-10 -22 -10 -5 0 -11 -3 -13 -7 -1 -5 -39 -35 -83 -67 -44 -33 -81 -63 -83
-68 -2 -4 -9 -8 -15 -8 -12 0 -42 -39 -35 -45 10 -8 623 -114 666 -115 12 0
22 6 22 14 0 58 -106 650 -109 611z"/>
</g>
</svg>
